<?xml version="1.0" standalone="no"?>
<!DOCTYPE svg PUBLIC "-//W3C//DTD SVG 20010904//EN"
 "http://www.w3.org/TR/2001/REC-SVG-20010904/DTD/svg10.dtd">
<svg version="1.0" xmlns="http://www.w3.org/2000/svg"
 width="512.000000pt" height="512.000000pt" viewBox="0 0 512.000000 512.000000"
 preserveAspectRatio="xMidYMid meet">

<g transform="translate(0.000000,512.000000) scale(0.100000,-0.100000)"
fill="#000000" stroke="none">
<path d="M2490 5102 c-19 -9 -45 -32 -57 -51 -23 -34 -23 -36 -23 -396 l0
-363 -57 -7 c-301 -37 -611 -161 -839 -338 l-72 -55 -68 70 c-38 38 -82 79
-97 90 -119 86 -280 -22 -239 -160 8 -25 40 -66 100 -125 l89 -89 -61 -82
c-165 -218 -270 -470 -318 -758 l-22 -128 -355 0 c-328 0 -359 -1 -391 -19
-42 -22 -80 -84 -80 -131 0 -47 38 -109 80 -131 32 -18 63 -19 391 -19 l356 0
17 -111 c45 -289 164 -569 342 -800 l43 -56 -81 -79 c-92 -91 -123 -146 -113
-203 9 -54 57 -108 108 -122 69 -18 109 0 212 102 l90 88 45 -36 c230 -184
550 -316 873 -358 l47 -6 0 -357 c0 -329 1 -360 19 -392 22 -42 84 -80 131
-80 47 0 109 38 131 80 18 32 19 63 19 391 l0 357 88 12 c294 41 586 164 823
346 l56 43 79 -81 c127 -129 206 -148 285 -69 79 79 60 158 -69 285 l-81 79
43 56 c182 237 305 529 346 824 l12 87 357 0 c328 0 359 1 391 19 42 22 80 84
80 131 0 47 -38 109 -80 131 -32 18 -63 19 -391 19 l-355 0 -22 128 c-48 288
-153 540 -318 759 l-61 81 69 69 c124 121 151 185 109 263 -26 50 -74 80 -128
80 -60 0 -85 -15 -178 -109 -44 -45 -83 -81 -87 -81 -4 0 -47 29 -95 65 -224
165 -508 280 -783 317 l-89 12 -3 362 c-3 350 -4 364 -24 391 -51 69 -125 90
-194 55z m-297 -1687 c74 -34 142 -102 175 -173 24 -51 27 -69 27 -162 0 -96
-3 -110 -28 -158 -38 -72 -100 -133 -173 -167 -51 -25 -71 -29 -149 -30 -77 0
-98 4 -147 27 -79 37 -142 98 -181 177 -29 58 -32 75 -32 151 0 74 4 93 31
150 51 109 120 171 227 206 65 22 181 12 250 -21z"/>
</g>
</svg>
